PathFileType	4	(X/Y/Z)	RBDS001static.trc
DataRate	CameraRate	NumFrames	NumMarkers	Units	OrigDataRate	OrigDataStartFrame	OrigNumFrames
150.000000	150.000000	4	48	mm	150.000000	37	150
Frame#	Time	L.Ankle			L.Ankle.Medial			L.ASIS			L.GTR			L.Heel.Bottom			L.Heel.Lateral			L.Heel.Top			L.HF			L.Iliac.Crest			L.Knee			L.Knee.Medial			L.MT1			L.MT2			L.MT5			L.PSIS			L.Shank.Bottom.Lateral			L.Shank.Bottom.Medial			L.Shank.Top.Lateral			L.Shank.Top.Medial			L.Thigh.Bottom.Lateral			L.Thigh.Bottom.Medial			L.Thigh.Top.Lateral			L.Thigh.Top.Medial			L.TT			R.Ankle			R.Ankle.Medial			R.ASIS			R.GTR			R.Heel.Bottom			R.Heel.Lateral			R.Heel.Top			R.HF			R.Iliac.Crest			R.Knee			R.Knee.Medial			R.MT1			R.MT2			R.MT5			R.PSIS			R.Shank.Bottom.Lateral			R.Shank.Bottom.Medial			R.Shank.Top.Lateral			R.Shank.Top.Medial			R.Thigh.Bottom.Lateral			R.Thigh.Bottom.Medial			R.Thigh.Top.Lateral			R.Thigh.Top.Medial			R.TT			
		X1	Y1	Z1	X2	Y2	Z2	X3	Y3	Z3	X4	Y4	Z4	X5	Y5	Z5	X6	Y6	Z6	X7	Y7	Z7	X8	Y8	Z8	X9	Y9	Z9	X10	Y10	Z10	X11	Y11	Z11	X12	Y12	Z12	X13	Y13	Z13	X14	Y14	Z14	X15	Y15	Z15	X16	Y16	Z16	X17	Y17	Z17	X18	Y18	Z18	X19	Y19	Z19	X20	Y20	Z20	X21	Y21	Z21	X22	Y22	Z22	X23	Y23	Z23	X24	Y24	Z24	X25	Y25	Z25	X26	Y26	Z26	X27	Y27	Z27	X28	Y28	Z28	X29	Y29	Z29	X30	Y30	Z30	X31	Y31	Z31	X32	Y32	Z32	X33	Y33	Z33	X34	Y34	Z34	X35	Y35	Z35	X36	Y36	Z36	X37	Y37	Z37	X38	Y38	Z38	X39	Y39	Z39	X40	Y40	Z40	X41	Y41	Z41	X42	Y42	Z42	X43	Y43	Z43	X44	Y44	Z44	X45	Y45	Z45	X46	Y46	Z46	X47	Y47	Z47	X48	Y48	Z48	

38	0.2466666666666667	705.0631713867188	108.7727432250977	1050.924926757813	725.5697021484375	119.2816009521484	1129.003173828125	877.4987182617188	1067.405029296875	1126.549438476563	799.9901123046875	965.5608520507813	1056.40478515625	633.313232421875	43.02388000488281	1085.116821289063	663.43505859375	60.36427307128906	1046.798095703125	641.827392578125	90.50661468505859	1088.85107421875	734.4029541015625	490.4872436523438	1039.673217773438	816.5155029296875	1135.470336914063	1089.910400390625	752.046142578125	550.5526733398438	1051.927368164063	732.2813720703125	539.8681640625	1161.954711914063	854.9567260742188	62.80092620849609	1133.42236328125	861.0548095703125	69.67288970947266	1088.609985351563	827.1143188476563	56.56128311157227	1026.660278320313	699.6918334960938	1099.0009765625	1181.16455078125	713.3890380859375	191.5989074707031	1043.468017578125	670.4498901367188	190.6896667480469	1071.891845703125	708.7960205078125	271.4073486328125	1031.314453125	665.5264282226563	274.7195739746094	1063.20703125	743.2031860351563	675.5714111328125	1042.871948242188	690.0842895507813	678.228759765625	1093.444946289063	741.0260009765625	786.2303466796875	1039.921875	696.127197265625	788.90185546875	1092.739501953125	785.9959106445313	461.5991516113281	1091.628784179688	702.010009765625	110.4614639282227	1397.339233398438	720.015380859375	116.6039123535156	1314.71533203125	855.7857666015625	1060.603515625	1336.915161132813	761.8761596679688	966.5939331054688	1384.470825195313	627.5145874023438	42.54660415649414	1360.101928710938	658.3701782226563	58.92710113525391	1403.294311523438	638.9241943359375	90.70515441894531	1359.63427734375	731.4172973632813	491.5135498046875	1397.446655273438	792.779296875	1135.528564453125	1358.4775390625	734.2741088867188	553.2617797851563	1386.738159179688	730.895263671875	540.0086669921875	1270.555297851563	850.187744140625	64.40904998779297	1319.649780273438	855.0856323242188	73.15559387207031	1362.028686523438	829.7224731445313	56.36743927001953	1427.119384765625	695.96728515625	1097.771484375	1257.922119140625	702.0908203125	190.5036315917969	1400.726806640625	660.7339477539063	194.2018585205078	1364.781372070313	698.3683471679688	271.2559509277344	1410.6220703125	658.69140625	273.8255310058594	1373.584228515625	733.8810424804688	651.1844482421875	1396.292846679688	679.6804809570313	650.427734375	1345.570434570313	725.8790283203125	761.7750854492188	1398.639038085938	677.4053344726563	760.4153442382813	1347.892944335938	780.7959594726563	462.5956420898438	1343.586791992188	
39	0.2533333333333334	705.0567016601563	108.767448425293	1050.921875	725.5774536132813	119.2691879272461	1129.002319335938	877.4945678710938	1067.406372070313	1126.542358398438	799.97412109375	965.5635375976563	1056.414306640625	633.3136596679688	43.0203857421875	1085.11474609375	663.4447021484375	60.36408615112305	1046.80078125	641.8280029296875	90.50559997558594	1088.854370117188	734.4130859375	490.4895935058594	1039.688354492188	816.503173828125	1135.468383789063	1089.907592773438	752.0482177734375	550.5526123046875	1051.94921875	732.29052734375	539.8685913085938	1161.974853515625	854.9630737304688	62.80111312866211	1133.41845703125	861.05810546875	69.67935180664063	1088.603271484375	827.1061401367188	56.56306838989258	1026.650512695313	699.6931762695313	1099.00537109375	1181.182495117188	713.3839721679688	191.6056823730469	1043.468872070313	670.4530029296875	190.6884918212891	1071.904663085938	708.8023071289063	271.4088134765625	1031.335693359375	665.5254516601563	274.7138061523438	1063.241455078125	743.1886596679688	675.5635375976563	1042.903564453125	690.073486328125	678.2216796875	1093.466674804688	741.0139770507813	786.228515625	1039.947631835938	696.12548828125	788.8956909179688	1092.7646484375	786.01318359375	461.6017761230469	1091.6435546875	702.0136108398438	110.4565963745117	1397.339477539063	720.0394287109375	116.6095352172852	1314.713623046875	855.809814453125	1060.60498046875	1336.917114257813	761.9042358398438	966.5928955078125	1384.481567382813	627.5189208984375	42.54379653930664	1360.099853515625	658.3796997070313	58.91985321044922	1403.2919921875	638.9254760742188	90.71811676025391	1359.634765625	731.4244995117188	491.5094604492188	1397.461547851563	792.82763671875	1135.54248046875	1358.481079101563	734.2889404296875	553.2631225585938	1386.745483398438	730.9154052734375	540.0112915039063	1270.564819335938	850.19775390625	64.41498565673828	1319.656005859375	855.0919799804688	73.15744781494141	1362.029418945313	829.7151489257813	56.36688995361328	1427.127319335938	695.9769897460938	1097.785888671875	1257.930786132813	702.0938110351563	190.5090942382813	1400.730834960938	660.7322387695313	194.2007751464844	1364.779296875	698.3754272460938	271.2572021484375	1410.620361328125	658.6981811523438	273.8292541503906	1373.593994140625	733.8963623046875	651.18603515625	1396.310913085938	679.6913452148438	650.4241333007813	1345.596069335938	725.8988647460938	761.7777099609375	1398.649047851563	677.4153442382813	760.4140014648438	1347.908813476563	780.809326171875	462.6014404296875	1343.599365234375	
40	0.26	705.0604248046875	108.7686004638672	1050.930541992188	725.5720825195313	119.2723922729492	1129.006713867188	877.4921264648438	1067.41064453125	1126.534301757813	799.9492797851563	965.5718994140625	1056.41162109375	633.31494140625	43.01769256591797	1085.114135742188	663.4371337890625	60.36845016479492	1046.79443359375	641.8243408203125	90.51288604736328	1088.848754882813	734.3961791992188	490.4949645996094	1039.703125	816.4913940429688	1135.474609375	1089.914184570313	752.0374145507813	550.5570068359375	1051.963256835938	732.3087158203125	539.860595703125	1161.98828125	854.9601440429688	62.80301284790039	1133.4296875	861.0511474609375	69.67779541015625	1088.603149414063	827.1087646484375	56.56346130371094	1026.647094726563	699.6971435546875	1099.00927734375	1181.201416015625	713.3839721679688	191.5987701416016	1043.476806640625	670.4498901367188	190.6942443847656	1071.904663085938	708.7937622070313	271.4144592285156	1031.34033203125	665.5203247070313	274.7200622558594	1063.250854492188	743.1741333007813	675.5638427734375	1042.921508789063	690.0609741210938	678.2222900390625	1093.495727539063	740.9935302734375	786.2285766601563	1039.965454101563	696.1087036132813	788.9056396484375	1092.789794921875	786.0050048828125	461.6054382324219	1091.659790039063	702.0125732421875	110.4636917114258	1397.347778320313	720.0245361328125	116.6146240234375	1314.71533203125	855.8326416015625	1060.61279296875	1336.9111328125	761.9216918945313	966.6064453125	1384.487548828125	627.5182495117188	42.55052947998047	1360.098754882813	658.3741455078125	58.9239616394043	1403.297973632813	638.9208374023438	90.72003936767578	1359.632690429688	731.450439453125	491.5147705078125	1397.46630859375	792.8596801757813	1135.5546875	1358.467651367188	734.3043823242188	553.2643432617188	1386.755859375	730.8955688476563	540.0272216796875	1270.57275390625	850.1956787109375	64.41881561279297	1319.653564453125	855.0880737304688	73.16126251220703	1362.035278320313	829.7282104492188	56.36870193481445	1427.117919921875	695.9955444335938	1097.7890625	1257.945068359375	702.0982666015625	190.5009765625	1400.733276367188	660.7451171875	194.202880859375	1364.786865234375	698.38720703125	271.2591857910156	1410.628540039063	658.7013549804688	273.8362426757813	1373.5927734375	733.9120483398438	651.180908203125	1396.30810546875	679.698486328125	650.4290161132813	1345.608276367188	725.9158935546875	761.7809448242188	1398.666259765625	677.4260864257813	760.4175415039063	1347.9228515625	780.81103515625	462.6033630371094	1343.60693359375	
41	0.2666666666666667	705.064697265625	108.7860260009766	1050.931518554688	725.5808715820313	119.2688674926758	1129.000610351563	877.4879760742188	1067.404052734375	1126.541259765625	799.936279296875	965.557861328125	1056.418579101563	633.31396484375	43.0277099609375	1085.125366210938	663.4375	60.37551116943359	1046.799560546875	641.823486328125	90.52730560302734	1088.854125976563	734.3925170898438	490.4978942871094	1039.723388671875	816.4894409179688	1135.47900390625	1089.921997070313	752.03369140625	550.560791015625	1051.989868164063	732.3104248046875	539.8690795898438	1162.001220703125	854.9585571289063	62.80796813964844	1133.44384765625	861.0542602539063	69.68185424804688	1088.607177734375	827.1076049804688	56.56673812866211	1026.645263671875	699.6994018554688	1099.015014648438	1181.21240234375	713.3840942382813	191.6125640869141	1043.4892578125	670.4454956054688	190.7018280029297	1071.91650390625	708.78564453125	271.4219055175781	1031.358276367188	665.498779296875	274.7507019042969	1063.252197265625	743.1572265625	675.5614624023438	1042.934204101563	690.0510864257813	678.22998046875	1093.520385742188	740.9756469726563	786.2312622070313	1039.986328125	696.0989379882813	788.9075317382813	1092.816284179688	786.014404296875	461.6163940429688	1091.675659179688	702.0259399414063	110.4646301269531	1397.343139648438	720.0220947265625	116.6204223632813	1314.712646484375	855.8634643554688	1060.617431640625	1336.921142578125	761.934326171875	966.607177734375	1384.50048828125	627.5173950195313	42.55240631103516	1360.097412109375	658.3754272460938	58.91934585571289	1403.299072265625	638.9237060546875	90.73317718505859	1359.633544921875	731.457275390625	491.50634765625	1397.463989257813	792.9075927734375	1135.57080078125	1358.475219726563	734.319580078125	553.2598266601563	1386.755737304688	730.9232177734375	540.0181884765625	1270.584838867188	850.195068359375	64.41059112548828	1319.6484375	855.0880737304688	73.16016387939453	1362.026245117188	829.718505859375	56.37187957763672	1427.121704101563	696.0181884765625	1097.785522460938	1257.969604492188	702.1096801757813	190.5113372802734	1400.729614257813	660.7444458007813	194.2079162597656	1364.782958984375	698.3974609375	271.262451171875	1410.636474609375	658.70556640625	273.8343200683594	1373.59326171875	733.92529296875	651.1829833984375	1396.317504882813	679.7097778320313	650.4324951171875	1345.626586914063	725.9295654296875	761.7860107421875	1398.68017578125	677.4307861328125	760.4293212890625	1347.938720703125	780.8186645507813	462.6007690429688	1343.620727539063	
